<svg width="44" height="61" viewBox="0 0 44 61" fill="none" xmlns="http://www.w3.org/2000/svg">
<path d="M22.7344 30.867C22.7344 28.2356 23.7773 25.712 25.6341 23.8514C27.4907 21.9906 30.0087 20.9453 32.6344 20.9453C35.26 20.9453 37.7781 21.9906 39.6347 23.8514C41.4914 25.712 42.5344 28.2356 42.5344 30.867C42.5344 33.4984 41.4914 36.022 39.6347 37.8826C37.7781 39.7434 35.26 40.7887 32.6344 40.7887C30.0087 40.7887 27.4907 39.7434 25.6341 37.8826C23.7773 36.022 22.7344 33.4984 22.7344 30.867Z" fill="#1ABCFE"/>
<path d="M1.29688 50.7107C1.29688 48.0794 2.42683 45.5558 4.43816 43.6951C6.44949 41.8343 9.17744 40.7891 12.0219 40.7891H22.7469V50.7107C22.7469 53.3421 21.617 55.8657 19.6056 57.7264C17.5943 59.5872 14.8663 60.6324 12.0219 60.6324C9.17744 60.6324 6.44949 59.5872 4.43816 57.7264C2.42683 55.8657 1.29688 53.3421 1.29688 50.7107Z" fill="#0ACF83"/>
<path d="M22.7344 1.10254V20.9459H32.6344C35.26 20.9459 37.7781 19.9007 39.6347 18.0399C41.4914 16.1792 42.5344 13.6556 42.5344 11.0242C42.5344 8.39283 41.4914 5.86921 39.6347 4.00853C37.7781 2.14785 35.26 1.10254 32.6344 1.10254H22.7344Z" fill="#FF7262"/>
<path d="M2.92188 11.0252C2.92188 13.6566 3.96491 16.1802 5.82152 18.0408C7.67817 19.9016 10.1962 20.9469 12.8219 20.9469H22.7219V1.10352H12.8219C10.1962 1.10352 7.67817 2.14883 5.82152 4.00951C3.96491 5.87019 2.92188 8.39381 2.92188 11.0252Z" fill="#F24E1E"/>
<path d="M2.92188 30.8671C2.92188 33.4985 3.96491 36.0221 5.82152 37.8827C7.67817 39.7436 10.1962 40.7888 12.8219 40.7888H22.7219V20.9454H12.8219C10.1962 20.9454 7.67817 21.9907 5.82152 23.8515C3.96491 25.7121 2.92188 28.2357 2.92188 30.8671Z" fill="#A259FF"/>
</svg>
