<svg width="59" height="58" viewBox="0 0 59 58" fill="none" xmlns="http://www.w3.org/2000/svg">
<path fill-rule="evenodd" clip-rule="evenodd" d="M29.5 0C13.2013 0 0 13.3057 0 29.7335C0 42.8906 8.44438 54.0035 20.1705 57.9432C21.6455 58.2033 22.1987 57.3113 22.1987 56.5309C22.1987 55.8246 22.162 53.4832 22.162 50.9929C14.75 52.3682 12.8325 49.1717 12.2425 47.4992C11.9106 46.6443 10.4725 44.0056 9.21875 43.2993C8.18625 42.7419 6.71125 41.3666 9.18188 41.3295C11.505 41.2923 13.1644 43.4852 13.7175 44.3772C16.3725 48.8743 20.6132 47.6108 22.3095 46.8302C22.5675 44.8976 23.3418 43.5966 24.19 42.8533C17.6263 42.11 10.7675 39.5455 10.7675 28.1725C10.7675 24.9389 11.9106 22.2629 13.7913 20.1815C13.4963 19.4382 12.4638 16.3905 14.0863 12.3022C14.0863 12.3022 16.557 11.5217 22.1987 15.35C24.5588 14.681 27.0663 14.3464 29.5738 14.3464C32.0813 14.3464 34.5888 14.681 36.9488 15.35C42.5907 11.4846 45.0612 12.3022 45.0612 12.3022C46.6838 16.3905 45.6512 19.4382 45.3563 20.1815C47.237 22.2629 48.38 24.9018 48.38 28.1725C48.38 39.5826 41.4845 42.11 34.9207 42.8533C35.99 43.7826 36.912 45.5666 36.912 48.3542C36.912 52.3309 36.875 55.5273 36.875 56.5309C36.875 57.3113 37.4282 58.2405 38.9032 57.9432C44.7594 55.9504 49.8483 52.1569 53.4534 47.0964C57.0586 42.0359 58.9984 35.9634 59 29.7335C59 13.3057 45.7988 0 29.5 0Z" fill="white" fill-opacity="0.82"/>
</svg>
