<svg width="69" height="71" viewBox="0 0 69 71" fill="none" xmlns="http://www.w3.org/2000/svg">
<path d="M64.8175 33.2224L37.1875 6.47421L34.5097 3.88379L4.20395 33.2224C3.21327 34.1839 3.21327 35.7408 4.20395 36.7006L23.2058 55.0953L34.5097 66.0409L64.8175 36.7006C65.8088 35.7408 65.8088 34.1839 64.8175 33.2224ZM34.5097 44.1496L25.0191 34.9628L34.5097 25.7725L44.0022 34.9628L34.5097 44.1496Z" fill="#2684FF"/>
<path d="M34.4951 25.7729C28.2818 19.7553 28.2499 10.0091 34.429 3.95605L13.6562 24.0579L24.9627 35.0036L34.4951 25.7729Z" fill="url(#paint0_linear_29_1265)"/>
<path d="M44.0187 34.9365L34.5 44.1496C37.4998 47.051 39.1868 50.9892 39.1868 55.0952C39.1868 59.2013 37.4998 63.1369 34.5 66.0409L55.3226 45.8821L44.0187 34.9365Z" fill="url(#paint1_linear_29_1265)"/>
<defs>
<linearGradient id="paint0_linear_29_1265" x1="30.4156" y1="18.7875" x2="19.8985" y2="29.6486" gradientUnits="userSpaceOnUse">
<stop stop-color="#0052CC"/>
<stop offset="1" stop-color="#2684FF"/>
</linearGradient>
<linearGradient id="paint1_linear_29_1265" x1="38.6968" y1="51.0353" x2="49.1928" y2="40.1931" gradientUnits="userSpaceOnUse">
<stop stop-color="#0052CC"/>
<stop offset="1" stop-color="#2684FF"/>
</linearGradient>
</defs>
</svg>
