<svg width="55" height="63" viewBox="0 0 55 63" fill="none" xmlns="http://www.w3.org/2000/svg">
<path d="M1.70312 35.3672L23.0913 56.6814C12.169 54.8416 3.54935 46.2516 1.70312 35.3672Z" fill="#5E6AD2"/>
<path d="M1.38281 29.5808L28.9065 57.0094C30.5434 56.9223 32.1403 56.6851 33.6835 56.3114L2.08328 24.8203C1.7083 26.3583 1.47028 27.9496 1.38281 29.5808Z" fill="#5E6AD2"/>
<path d="M3.4375 20.7271L37.7755 54.9465C39.026 54.4116 40.2264 53.7824 41.3675 53.0675L5.32298 17.1476C4.60576 18.2847 3.97425 19.4809 3.4375 20.7271Z" fill="#5E6AD2"/>
<path d="M7.65625 14.0076C12.4508 8.45587 19.5535 4.94043 27.4801 4.94043C41.919 4.94043 53.6241 16.605 53.6241 30.994C53.6241 38.8933 50.0964 45.9715 44.5254 50.7494L7.65625 14.0076Z" fill="#5E6AD2"/>
</svg>
