<svg width="53" height="59" viewBox="0 0 53 59" fill="none" xmlns="http://www.w3.org/2000/svg">
<path d="M11.9341 37.1775C11.9341 40.0732 9.5708 42.4135 6.64674 42.4135C3.72267 42.4135 1.35938 40.0732 1.35938 37.1775C1.35938 34.2817 3.72267 31.9414 6.64674 31.9414H11.9341V37.1775ZM14.5777 37.1775C14.5777 34.2817 16.941 31.9414 19.8652 31.9414C22.7892 31.9414 25.1524 34.2817 25.1524 37.1775V50.2677C25.1524 53.1634 22.7892 55.5038 19.8652 55.5038C16.941 55.5038 14.5777 53.1634 14.5777 50.2677V37.1775Z" fill="#E01E5A"/>
<path d="M19.8739 16.1538C16.9499 16.1538 14.5866 13.8135 14.5866 10.9177C14.5866 8.02201 16.9499 5.68164 19.8739 5.68164C22.798 5.68164 25.1613 8.02201 25.1613 10.9177V16.1538H19.8739ZM19.8739 18.8115C22.798 18.8115 25.1613 21.152 25.1613 24.0477C25.1613 26.9434 22.798 29.2837 19.8739 29.2837H6.61547C3.69141 29.2837 1.32812 26.9434 1.32812 24.0477C1.32812 21.152 3.69141 18.8115 6.61547 18.8115H19.8739Z" fill="#36C5F0"/>
<path d="M41.0621 24.0477C41.0621 21.152 43.4254 18.8115 46.3495 18.8115C49.2735 18.8115 51.6368 21.152 51.6368 24.0477C51.6368 26.9434 49.2735 29.2837 46.3495 29.2837H41.0621V24.0477ZM38.4184 24.0477C38.4184 26.9434 36.0552 29.2837 33.131 29.2837C30.207 29.2837 27.8438 26.9434 27.8438 24.0477V10.9177C27.8438 8.02201 30.207 5.68164 33.131 5.68164C36.0552 5.68164 38.4184 8.02201 38.4184 10.9177V24.0477Z" fill="#2EB67D"/>
<path d="M33.131 45.0315C36.0552 45.0315 38.4184 47.372 38.4184 50.2677C38.4184 53.1634 36.0552 55.5038 33.131 55.5038C30.207 55.5038 27.8438 53.1634 27.8438 50.2677V45.0315H33.131ZM33.131 42.4135C30.207 42.4135 27.8438 40.0732 27.8438 37.1775C27.8438 34.2817 30.207 31.9414 33.131 31.9414H46.3895C49.3137 31.9414 51.6769 34.2817 51.6769 37.1775C51.6769 40.0732 49.3137 42.4135 46.3895 42.4135H33.131Z" fill="#ECB22E"/>
</svg>
